<mxfile host="Electron" modified="2024-08-25T15:12:30.873Z" agent="Mozilla/5.0 (Windows NT 10.0; Win64; x64) AppleWebKit/537.36 (KHTML, like Gecko) draw.io/21.2.8 Chrome/112.0.5615.165 Electron/24.2.0 Safari/537.36" etag="8ENtxQeE_KNRUyMEAIWy" version="21.2.8" type="device">
  <diagram id="R2lEEEUBdFMjLlhIrx00" name="Page-1">
    <mxGraphModel dx="1152" dy="688" grid="1" gridSize="10" guides="1" tooltips="1" connect="1" arrows="1" fold="1" page="1" pageScale="1" pageWidth="850" pageHeight="1100" math="0" shadow="0" extFonts="Permanent Marker^https://fonts.googleapis.com/css?family=Permanent+Marker">
      <root>
        <mxCell id="0" />
        <mxCell id="1" parent="0" />
        <mxCell id="yE2LzBMK2uqDd32Tf21D-54" value="M" style="edgeStyle=orthogonalEdgeStyle;rounded=0;orthogonalLoop=1;jettySize=auto;html=1;entryX=0.5;entryY=0;entryDx=0;entryDy=0;endArrow=none;endFill=0;exitX=0.5;exitY=1;exitDx=0;exitDy=0;" parent="1" source="yE2LzBMK2uqDd32Tf21D-20" target="yE2LzBMK2uqDd32Tf21D-52" edge="1">
          <mxGeometry relative="1" as="geometry" />
        </mxCell>
        <mxCell id="doxsQXY6HpdTvB6BmjqC-6" value="1" style="edgeStyle=orthogonalEdgeStyle;rounded=0;orthogonalLoop=1;jettySize=auto;html=1;endArrow=none;endFill=0;" edge="1" parent="1" source="yE2LzBMK2uqDd32Tf21D-20" target="hYqd0voivhmcO13C4nGc-55">
          <mxGeometry relative="1" as="geometry" />
        </mxCell>
        <mxCell id="yE2LzBMK2uqDd32Tf21D-20" value="&lt;font style=&quot;font-size: 14px;&quot;&gt;User&lt;/font&gt;" style="rounded=0;whiteSpace=wrap;html=1;" parent="1" vertex="1">
          <mxGeometry x="640" y="340" width="120" height="60" as="geometry" />
        </mxCell>
        <mxCell id="yE2LzBMK2uqDd32Tf21D-21" value="&lt;u&gt;ID&lt;/u&gt;" style="ellipse;whiteSpace=wrap;html=1;" parent="1" vertex="1">
          <mxGeometry x="570" y="210" width="70" height="50" as="geometry" />
        </mxCell>
        <mxCell id="yE2LzBMK2uqDd32Tf21D-22" value="" style="endArrow=none;html=1;rounded=0;entryX=0.5;entryY=1;entryDx=0;entryDy=0;exitX=0;exitY=0;exitDx=0;exitDy=0;" parent="1" source="yE2LzBMK2uqDd32Tf21D-20" target="yE2LzBMK2uqDd32Tf21D-21" edge="1">
          <mxGeometry width="50" height="50" relative="1" as="geometry">
            <mxPoint x="900" y="400" as="sourcePoint" />
            <mxPoint x="950" y="350" as="targetPoint" />
          </mxGeometry>
        </mxCell>
        <mxCell id="yE2LzBMK2uqDd32Tf21D-23" value="name" style="ellipse;whiteSpace=wrap;html=1;" parent="1" vertex="1">
          <mxGeometry x="620" y="150" width="70" height="50" as="geometry" />
        </mxCell>
        <mxCell id="yE2LzBMK2uqDd32Tf21D-24" value="" style="endArrow=none;html=1;rounded=0;entryX=0.5;entryY=1;entryDx=0;entryDy=0;exitX=0;exitY=0;exitDx=0;exitDy=0;" parent="1" source="yE2LzBMK2uqDd32Tf21D-20" target="yE2LzBMK2uqDd32Tf21D-23" edge="1">
          <mxGeometry width="50" height="50" relative="1" as="geometry">
            <mxPoint x="710" y="290" as="sourcePoint" />
            <mxPoint x="1020" y="300" as="targetPoint" />
          </mxGeometry>
        </mxCell>
        <mxCell id="yE2LzBMK2uqDd32Tf21D-25" value="birthday" style="ellipse;whiteSpace=wrap;html=1;" parent="1" vertex="1">
          <mxGeometry x="665" y="200" width="70" height="50" as="geometry" />
        </mxCell>
        <mxCell id="yE2LzBMK2uqDd32Tf21D-26" value="" style="endArrow=none;html=1;rounded=0;entryX=0.5;entryY=1;entryDx=0;entryDy=0;exitX=0.25;exitY=0;exitDx=0;exitDy=0;" parent="1" source="yE2LzBMK2uqDd32Tf21D-20" target="yE2LzBMK2uqDd32Tf21D-25" edge="1">
          <mxGeometry width="50" height="50" relative="1" as="geometry">
            <mxPoint x="600" y="410" as="sourcePoint" />
            <mxPoint x="1070" y="350" as="targetPoint" />
          </mxGeometry>
        </mxCell>
        <mxCell id="yE2LzBMK2uqDd32Tf21D-27" value="" style="endArrow=none;html=1;rounded=0;exitX=0.5;exitY=0;exitDx=0;exitDy=0;entryX=0.5;entryY=1;entryDx=0;entryDy=0;" parent="1" source="yE2LzBMK2uqDd32Tf21D-20" target="yE2LzBMK2uqDd32Tf21D-28" edge="1">
          <mxGeometry width="50" height="50" relative="1" as="geometry">
            <mxPoint x="680" y="350" as="sourcePoint" />
            <mxPoint x="760" y="210" as="targetPoint" />
          </mxGeometry>
        </mxCell>
        <mxCell id="yE2LzBMK2uqDd32Tf21D-28" value="&lt;u&gt;username&lt;/u&gt;" style="ellipse;whiteSpace=wrap;html=1;" parent="1" vertex="1">
          <mxGeometry x="720" y="140" width="70" height="50" as="geometry" />
        </mxCell>
        <mxCell id="yE2LzBMK2uqDd32Tf21D-30" value="" style="endArrow=none;html=1;rounded=0;exitX=0.5;exitY=0;exitDx=0;exitDy=0;entryX=0.5;entryY=1;entryDx=0;entryDy=0;" parent="1" source="yE2LzBMK2uqDd32Tf21D-20" target="yE2LzBMK2uqDd32Tf21D-31" edge="1">
          <mxGeometry width="50" height="50" relative="1" as="geometry">
            <mxPoint x="710" y="350" as="sourcePoint" />
            <mxPoint x="760" y="240" as="targetPoint" />
          </mxGeometry>
        </mxCell>
        <mxCell id="yE2LzBMK2uqDd32Tf21D-31" value="job" style="ellipse;whiteSpace=wrap;html=1;" parent="1" vertex="1">
          <mxGeometry x="760" y="190" width="70" height="50" as="geometry" />
        </mxCell>
        <mxCell id="yE2LzBMK2uqDd32Tf21D-32" value="" style="endArrow=none;html=1;rounded=0;exitX=0.75;exitY=0;exitDx=0;exitDy=0;entryX=0.5;entryY=1;entryDx=0;entryDy=0;" parent="1" source="yE2LzBMK2uqDd32Tf21D-20" target="yE2LzBMK2uqDd32Tf21D-33" edge="1">
          <mxGeometry width="50" height="50" relative="1" as="geometry">
            <mxPoint x="700" y="340" as="sourcePoint" />
            <mxPoint x="870" y="200" as="targetPoint" />
          </mxGeometry>
        </mxCell>
        <mxCell id="yE2LzBMK2uqDd32Tf21D-33" value="password" style="ellipse;whiteSpace=wrap;html=1;" parent="1" vertex="1">
          <mxGeometry x="836" y="140" width="70" height="50" as="geometry" />
        </mxCell>
        <mxCell id="yE2LzBMK2uqDd32Tf21D-34" value="&lt;u&gt; email&lt;/u&gt;" style="ellipse;whiteSpace=wrap;html=1;" parent="1" vertex="1">
          <mxGeometry x="925" y="140" width="70" height="50" as="geometry" />
        </mxCell>
        <mxCell id="yE2LzBMK2uqDd32Tf21D-35" value="" style="endArrow=none;html=1;rounded=0;exitX=0.75;exitY=0;exitDx=0;exitDy=0;entryX=0;entryY=1;entryDx=0;entryDy=0;" parent="1" source="yE2LzBMK2uqDd32Tf21D-20" target="yE2LzBMK2uqDd32Tf21D-34" edge="1">
          <mxGeometry width="50" height="50" relative="1" as="geometry">
            <mxPoint x="740" y="350" as="sourcePoint" />
            <mxPoint x="881" y="200" as="targetPoint" />
          </mxGeometry>
        </mxCell>
        <mxCell id="yE2LzBMK2uqDd32Tf21D-36" value="" style="endArrow=none;html=1;rounded=0;exitX=0.942;exitY=0;exitDx=0;exitDy=0;exitPerimeter=0;entryX=0;entryY=0.5;entryDx=0;entryDy=0;" parent="1" source="yE2LzBMK2uqDd32Tf21D-20" target="yE2LzBMK2uqDd32Tf21D-37" edge="1">
          <mxGeometry width="50" height="50" relative="1" as="geometry">
            <mxPoint x="740" y="350" as="sourcePoint" />
            <mxPoint x="810" y="310" as="targetPoint" />
          </mxGeometry>
        </mxCell>
        <mxCell id="yE2LzBMK2uqDd32Tf21D-37" value=" credit_limit" style="ellipse;whiteSpace=wrap;html=1;" parent="1" vertex="1">
          <mxGeometry x="900" y="200" width="70" height="50" as="geometry" />
        </mxCell>
        <mxCell id="yE2LzBMK2uqDd32Tf21D-38" value="" style="endArrow=none;html=1;rounded=0;exitX=1;exitY=0;exitDx=0;exitDy=0;entryX=0;entryY=0.5;entryDx=0;entryDy=0;" parent="1" source="yE2LzBMK2uqDd32Tf21D-20" target="yE2LzBMK2uqDd32Tf21D-39" edge="1">
          <mxGeometry width="50" height="50" relative="1" as="geometry">
            <mxPoint x="763" y="350" as="sourcePoint" />
            <mxPoint x="820" y="320" as="targetPoint" />
          </mxGeometry>
        </mxCell>
        <mxCell id="yE2LzBMK2uqDd32Tf21D-39" value=" address" style="ellipse;whiteSpace=wrap;html=1;" parent="1" vertex="1">
          <mxGeometry x="870" y="250" width="70" height="50" as="geometry" />
        </mxCell>
        <mxCell id="yE2LzBMK2uqDd32Tf21D-48" value="&lt;font style=&quot;font-size: 14px;&quot;&gt;Categroy&lt;/font&gt;" style="rounded=0;whiteSpace=wrap;html=1;" parent="1" vertex="1">
          <mxGeometry x="280" y="520" width="120" height="60" as="geometry" />
        </mxCell>
        <mxCell id="yE2LzBMK2uqDd32Tf21D-59" value="M" style="edgeStyle=orthogonalEdgeStyle;rounded=0;orthogonalLoop=1;jettySize=auto;html=1;entryX=1;entryY=0.5;entryDx=0;entryDy=0;endArrow=none;endFill=0;shape=link;" parent="1" source="yE2LzBMK2uqDd32Tf21D-49" target="yE2LzBMK2uqDd32Tf21D-58" edge="1">
          <mxGeometry relative="1" as="geometry" />
        </mxCell>
        <mxCell id="yE2LzBMK2uqDd32Tf21D-49" value="&lt;font style=&quot;font-size: 14px;&quot;&gt;Product&lt;/font&gt;" style="rounded=0;whiteSpace=wrap;html=1;" parent="1" vertex="1">
          <mxGeometry x="580" y="720" width="120" height="60" as="geometry" />
        </mxCell>
        <mxCell id="doxsQXY6HpdTvB6BmjqC-8" value="M" style="edgeStyle=orthogonalEdgeStyle;rounded=0;orthogonalLoop=1;jettySize=auto;html=1;exitX=0;exitY=0.5;exitDx=0;exitDy=0;endArrow=none;endFill=0;" edge="1" parent="1" source="yE2LzBMK2uqDd32Tf21D-51" target="doxsQXY6HpdTvB6BmjqC-7">
          <mxGeometry relative="1" as="geometry" />
        </mxCell>
        <mxCell id="yE2LzBMK2uqDd32Tf21D-51" value="&lt;font style=&quot;font-size: 14px;&quot;&gt;Order&lt;/font&gt;" style="rounded=0;whiteSpace=wrap;html=1;" parent="1" vertex="1">
          <mxGeometry x="1130" y="810" width="120" height="60" as="geometry" />
        </mxCell>
        <mxCell id="doxsQXY6HpdTvB6BmjqC-1" value="M" style="edgeStyle=orthogonalEdgeStyle;rounded=0;orthogonalLoop=1;jettySize=auto;html=1;entryX=1;entryY=0.5;entryDx=0;entryDy=0;endArrow=none;endFill=0;" edge="1" parent="1" source="yE2LzBMK2uqDd32Tf21D-52" target="yE2LzBMK2uqDd32Tf21D-49">
          <mxGeometry relative="1" as="geometry" />
        </mxCell>
        <mxCell id="yE2LzBMK2uqDd32Tf21D-52" value="UserCart" style="rhombus;whiteSpace=wrap;html=1;rounded=0;" parent="1" vertex="1">
          <mxGeometry x="770" y="570" width="80" height="80" as="geometry" />
        </mxCell>
        <mxCell id="yE2LzBMK2uqDd32Tf21D-60" value="M" style="edgeStyle=orthogonalEdgeStyle;rounded=0;orthogonalLoop=1;jettySize=auto;html=1;exitX=0;exitY=0.5;exitDx=0;exitDy=0;entryX=0.5;entryY=1;entryDx=0;entryDy=0;endArrow=none;endFill=0;" parent="1" source="yE2LzBMK2uqDd32Tf21D-58" target="yE2LzBMK2uqDd32Tf21D-48" edge="1">
          <mxGeometry relative="1" as="geometry" />
        </mxCell>
        <mxCell id="yE2LzBMK2uqDd32Tf21D-58" value="has" style="rhombus;whiteSpace=wrap;html=1;rounded=0;" parent="1" vertex="1">
          <mxGeometry x="410" y="710" width="80" height="80" as="geometry" />
        </mxCell>
        <mxCell id="yE2LzBMK2uqDd32Tf21D-63" value="M" style="edgeStyle=orthogonalEdgeStyle;rounded=0;orthogonalLoop=1;jettySize=auto;html=1;entryX=0.25;entryY=1;entryDx=0;entryDy=0;endArrow=none;endFill=0;" parent="1" source="yE2LzBMK2uqDd32Tf21D-61" target="yE2LzBMK2uqDd32Tf21D-20" edge="1">
          <mxGeometry x="-0.619" relative="1" as="geometry">
            <mxPoint as="offset" />
          </mxGeometry>
        </mxCell>
        <mxCell id="yE2LzBMK2uqDd32Tf21D-64" value="M" style="edgeStyle=orthogonalEdgeStyle;rounded=0;orthogonalLoop=1;jettySize=auto;html=1;entryX=1;entryY=0.5;entryDx=0;entryDy=0;endArrow=none;endFill=0;" parent="1" source="yE2LzBMK2uqDd32Tf21D-61" target="yE2LzBMK2uqDd32Tf21D-48" edge="1">
          <mxGeometry relative="1" as="geometry" />
        </mxCell>
        <mxCell id="yE2LzBMK2uqDd32Tf21D-61" value="interests" style="rhombus;whiteSpace=wrap;html=1;rounded=0;" parent="1" vertex="1">
          <mxGeometry x="480" y="460" width="80" height="80" as="geometry" />
        </mxCell>
        <mxCell id="yE2LzBMK2uqDd32Tf21D-67" value="&lt;u&gt;ID&lt;/u&gt;" style="ellipse;whiteSpace=wrap;html=1;" parent="1" vertex="1">
          <mxGeometry x="130" y="420" width="70" height="50" as="geometry" />
        </mxCell>
        <mxCell id="yE2LzBMK2uqDd32Tf21D-68" value="name" style="ellipse;whiteSpace=wrap;html=1;" parent="1" vertex="1">
          <mxGeometry x="240" y="430" width="70" height="50" as="geometry" />
        </mxCell>
        <mxCell id="yE2LzBMK2uqDd32Tf21D-69" value="" style="endArrow=none;html=1;rounded=0;entryX=0.5;entryY=1;entryDx=0;entryDy=0;exitX=0;exitY=0;exitDx=0;exitDy=0;" parent="1" target="yE2LzBMK2uqDd32Tf21D-68" edge="1">
          <mxGeometry width="50" height="50" relative="1" as="geometry">
            <mxPoint x="310" y="520" as="sourcePoint" />
            <mxPoint x="690" y="480" as="targetPoint" />
          </mxGeometry>
        </mxCell>
        <mxCell id="yE2LzBMK2uqDd32Tf21D-70" value="" style="endArrow=none;html=1;rounded=0;entryX=0.5;entryY=1;entryDx=0;entryDy=0;exitX=0;exitY=0;exitDx=0;exitDy=0;" parent="1" target="yE2LzBMK2uqDd32Tf21D-67" edge="1">
          <mxGeometry width="50" height="50" relative="1" as="geometry">
            <mxPoint x="310" y="520" as="sourcePoint" />
            <mxPoint x="620" y="530" as="targetPoint" />
          </mxGeometry>
        </mxCell>
        <mxCell id="yE2LzBMK2uqDd32Tf21D-71" value="&lt;u&gt;ID&lt;/u&gt;" style="ellipse;whiteSpace=wrap;html=1;" parent="1" vertex="1">
          <mxGeometry x="410" y="610" width="70" height="50" as="geometry" />
        </mxCell>
        <mxCell id="yE2LzBMK2uqDd32Tf21D-72" value="name" style="ellipse;whiteSpace=wrap;html=1;" parent="1" vertex="1">
          <mxGeometry x="490" y="620" width="70" height="50" as="geometry" />
        </mxCell>
        <mxCell id="yE2LzBMK2uqDd32Tf21D-73" value="" style="endArrow=none;html=1;rounded=0;entryX=0.5;entryY=1;entryDx=0;entryDy=0;exitX=0;exitY=0;exitDx=0;exitDy=0;" parent="1" target="yE2LzBMK2uqDd32Tf21D-71" edge="1">
          <mxGeometry width="50" height="50" relative="1" as="geometry">
            <mxPoint x="610" y="720" as="sourcePoint" />
            <mxPoint x="920" y="730" as="targetPoint" />
          </mxGeometry>
        </mxCell>
        <mxCell id="yE2LzBMK2uqDd32Tf21D-74" value="" style="endArrow=none;html=1;rounded=0;entryX=0.5;entryY=1;entryDx=0;entryDy=0;exitX=0;exitY=0;exitDx=0;exitDy=0;" parent="1" target="yE2LzBMK2uqDd32Tf21D-72" edge="1">
          <mxGeometry width="50" height="50" relative="1" as="geometry">
            <mxPoint x="610" y="720" as="sourcePoint" />
            <mxPoint x="990" y="680" as="targetPoint" />
          </mxGeometry>
        </mxCell>
        <mxCell id="yE2LzBMK2uqDd32Tf21D-75" value="" style="endArrow=none;html=1;rounded=0;entryX=0.5;entryY=1;entryDx=0;entryDy=0;" parent="1" target="yE2LzBMK2uqDd32Tf21D-76" edge="1">
          <mxGeometry width="50" height="50" relative="1" as="geometry">
            <mxPoint x="610" y="720" as="sourcePoint" />
            <mxPoint x="1045" y="630" as="targetPoint" />
          </mxGeometry>
        </mxCell>
        <mxCell id="yE2LzBMK2uqDd32Tf21D-76" value="price" style="ellipse;whiteSpace=wrap;html=1;" parent="1" vertex="1">
          <mxGeometry x="530" y="560" width="70" height="50" as="geometry" />
        </mxCell>
        <mxCell id="yE2LzBMK2uqDd32Tf21D-77" value="" style="endArrow=none;html=1;rounded=0;entryX=0.5;entryY=1;entryDx=0;entryDy=0;exitX=0.25;exitY=0;exitDx=0;exitDy=0;" parent="1" source="yE2LzBMK2uqDd32Tf21D-49" target="yE2LzBMK2uqDd32Tf21D-78" edge="1">
          <mxGeometry width="50" height="50" relative="1" as="geometry">
            <mxPoint x="690" y="740" as="sourcePoint" />
            <mxPoint x="1125" y="650" as="targetPoint" />
          </mxGeometry>
        </mxCell>
        <mxCell id="yE2LzBMK2uqDd32Tf21D-78" value="quantity" style="ellipse;whiteSpace=wrap;html=1;" parent="1" vertex="1">
          <mxGeometry x="610" y="580" width="70" height="50" as="geometry" />
        </mxCell>
        <mxCell id="yE2LzBMK2uqDd32Tf21D-97" value="&lt;u&gt;ID&lt;/u&gt;" style="ellipse;whiteSpace=wrap;html=1;" parent="1" vertex="1">
          <mxGeometry x="1110" y="710" width="70" height="50" as="geometry" />
        </mxCell>
        <mxCell id="yE2LzBMK2uqDd32Tf21D-98" value="" style="endArrow=none;html=1;rounded=0;entryX=0.5;entryY=1;entryDx=0;entryDy=0;exitX=0.25;exitY=0;exitDx=0;exitDy=0;" parent="1" target="yE2LzBMK2uqDd32Tf21D-97" edge="1">
          <mxGeometry width="50" height="50" relative="1" as="geometry">
            <mxPoint x="1190" y="810" as="sourcePoint" />
            <mxPoint x="1506" y="840" as="targetPoint" />
          </mxGeometry>
        </mxCell>
        <mxCell id="yE2LzBMK2uqDd32Tf21D-99" value="" style="endArrow=none;html=1;rounded=0;entryX=0.5;entryY=1;entryDx=0;entryDy=0;" parent="1" target="yE2LzBMK2uqDd32Tf21D-100" edge="1">
          <mxGeometry width="50" height="50" relative="1" as="geometry">
            <mxPoint x="1190" y="810" as="sourcePoint" />
            <mxPoint x="1516" y="850" as="targetPoint" />
          </mxGeometry>
        </mxCell>
        <mxCell id="yE2LzBMK2uqDd32Tf21D-100" value="order_date" style="ellipse;whiteSpace=wrap;html=1;" parent="1" vertex="1">
          <mxGeometry x="1200" y="720" width="70" height="50" as="geometry" />
        </mxCell>
        <mxCell id="hYqd0voivhmcO13C4nGc-15" value=" user_role" style="ellipse;whiteSpace=wrap;html=1;" parent="1" vertex="1">
          <mxGeometry x="950" y="280" width="70" height="50" as="geometry" />
        </mxCell>
        <mxCell id="hYqd0voivhmcO13C4nGc-16" value="" style="endArrow=none;html=1;rounded=0;exitX=1;exitY=0;exitDx=0;exitDy=0;entryX=0;entryY=0.5;entryDx=0;entryDy=0;" parent="1" target="hYqd0voivhmcO13C4nGc-15" edge="1">
          <mxGeometry width="50" height="50" relative="1" as="geometry">
            <mxPoint x="760" y="360" as="sourcePoint" />
            <mxPoint x="820" y="340" as="targetPoint" />
          </mxGeometry>
        </mxCell>
        <mxCell id="hYqd0voivhmcO13C4nGc-57" value="M" style="edgeStyle=orthogonalEdgeStyle;rounded=0;orthogonalLoop=1;jettySize=auto;html=1;entryX=1;entryY=0.5;entryDx=0;entryDy=0;exitX=0.5;exitY=1;exitDx=0;exitDy=0;endArrow=none;endFill=0;" parent="1" source="hYqd0voivhmcO13C4nGc-55" target="yE2LzBMK2uqDd32Tf21D-51" edge="1">
          <mxGeometry relative="1" as="geometry" />
        </mxCell>
        <mxCell id="hYqd0voivhmcO13C4nGc-55" value="purchace" style="rhombus;whiteSpace=wrap;html=1;rounded=0;" parent="1" vertex="1">
          <mxGeometry x="1360" y="490" width="80" height="80" as="geometry" />
        </mxCell>
        <mxCell id="doxsQXY6HpdTvB6BmjqC-2" value="Quantity" style="ellipse;whiteSpace=wrap;html=1;" vertex="1" parent="1">
          <mxGeometry x="925" y="530" width="70" height="50" as="geometry" />
        </mxCell>
        <mxCell id="doxsQXY6HpdTvB6BmjqC-3" value="price" style="ellipse;whiteSpace=wrap;html=1;" vertex="1" parent="1">
          <mxGeometry x="850" y="500" width="70" height="50" as="geometry" />
        </mxCell>
        <mxCell id="doxsQXY6HpdTvB6BmjqC-4" value="" style="endArrow=none;html=1;rounded=0;entryX=0.5;entryY=1;entryDx=0;entryDy=0;exitX=1;exitY=0;exitDx=0;exitDy=0;" edge="1" target="doxsQXY6HpdTvB6BmjqC-2" parent="1" source="yE2LzBMK2uqDd32Tf21D-52">
          <mxGeometry width="50" height="50" relative="1" as="geometry">
            <mxPoint x="950" y="490" as="sourcePoint" />
            <mxPoint x="1511" y="540" as="targetPoint" />
          </mxGeometry>
        </mxCell>
        <mxCell id="doxsQXY6HpdTvB6BmjqC-5" value="" style="endArrow=none;html=1;rounded=0;entryX=0;entryY=1;entryDx=0;entryDy=0;exitX=1;exitY=0;exitDx=0;exitDy=0;" edge="1" parent="1" source="yE2LzBMK2uqDd32Tf21D-52" target="doxsQXY6HpdTvB6BmjqC-3">
          <mxGeometry width="50" height="50" relative="1" as="geometry">
            <mxPoint x="1045" y="530" as="sourcePoint" />
            <mxPoint x="1160" y="390" as="targetPoint" />
          </mxGeometry>
        </mxCell>
        <mxCell id="doxsQXY6HpdTvB6BmjqC-9" value="M" style="edgeStyle=orthogonalEdgeStyle;rounded=0;orthogonalLoop=1;jettySize=auto;html=1;entryX=0.5;entryY=1;entryDx=0;entryDy=0;endArrow=none;endFill=0;" edge="1" parent="1" source="doxsQXY6HpdTvB6BmjqC-7" target="yE2LzBMK2uqDd32Tf21D-49">
          <mxGeometry relative="1" as="geometry" />
        </mxCell>
        <mxCell id="doxsQXY6HpdTvB6BmjqC-7" value="Contain" style="rhombus;whiteSpace=wrap;html=1;rounded=0;" vertex="1" parent="1">
          <mxGeometry x="860" y="800" width="80" height="80" as="geometry" />
        </mxCell>
        <mxCell id="doxsQXY6HpdTvB6BmjqC-10" value="price" style="ellipse;whiteSpace=wrap;html=1;" vertex="1" parent="1">
          <mxGeometry x="940" y="730" width="70" height="50" as="geometry" />
        </mxCell>
        <mxCell id="doxsQXY6HpdTvB6BmjqC-11" value="Quantity" style="ellipse;whiteSpace=wrap;html=1;" vertex="1" parent="1">
          <mxGeometry x="1015" y="760" width="70" height="50" as="geometry" />
        </mxCell>
        <mxCell id="doxsQXY6HpdTvB6BmjqC-12" value="" style="endArrow=none;html=1;rounded=0;entryX=0.5;entryY=1;entryDx=0;entryDy=0;exitX=1;exitY=0;exitDx=0;exitDy=0;" edge="1" target="doxsQXY6HpdTvB6BmjqC-11" parent="1">
          <mxGeometry width="50" height="50" relative="1" as="geometry">
            <mxPoint x="920" y="820" as="sourcePoint" />
            <mxPoint x="1601" y="770" as="targetPoint" />
          </mxGeometry>
        </mxCell>
        <mxCell id="doxsQXY6HpdTvB6BmjqC-13" value="" style="endArrow=none;html=1;rounded=0;entryX=0;entryY=1;entryDx=0;entryDy=0;exitX=1;exitY=0;exitDx=0;exitDy=0;" edge="1" target="doxsQXY6HpdTvB6BmjqC-10" parent="1">
          <mxGeometry width="50" height="50" relative="1" as="geometry">
            <mxPoint x="920" y="820" as="sourcePoint" />
            <mxPoint x="1250" y="620" as="targetPoint" />
          </mxGeometry>
        </mxCell>
      </root>
    </mxGraphModel>
  </diagram>
</mxfile>
